<mxfile host="app.diagrams.net" agent="Mozilla/5.0 (Macintosh; Intel Mac OS X 10.15; rv:139.0) Gecko/20100101 Firefox/139.0" version="27.1.6">
  <diagram name="Page-1" id="bDS9Y6P-C2L98GLE8BEm">
    <mxGraphModel dx="2431" dy="1367" grid="1" gridSize="10" guides="1" tooltips="1" connect="1" arrows="1" fold="1" page="1" pageScale="1" pageWidth="850" pageHeight="1100" math="1" shadow="0">
      <root>
        <mxCell id="0" />
        <mxCell id="1" parent="0" />
        <mxCell id="JT1Ut7bAEaXKmV4Mu-lT-36" value="" style="rounded=0;whiteSpace=wrap;html=1;dashed=1;" vertex="1" parent="1">
          <mxGeometry x="1230" y="340" width="270" height="140" as="geometry" />
        </mxCell>
        <mxCell id="JT1Ut7bAEaXKmV4Mu-lT-1" value="" style="endArrow=classic;html=1;rounded=0;entryX=0;entryY=0.5;entryDx=0;entryDy=0;" edge="1" parent="1" target="JT1Ut7bAEaXKmV4Mu-lT-3">
          <mxGeometry width="50" height="50" relative="1" as="geometry">
            <mxPoint x="120" y="200" as="sourcePoint" />
            <mxPoint x="500" y="200" as="targetPoint" />
          </mxGeometry>
        </mxCell>
        <mxCell id="JT1Ut7bAEaXKmV4Mu-lT-2" value="\(\Phi\)" style="rounded=0;whiteSpace=wrap;html=1;" vertex="1" parent="1">
          <mxGeometry x="40" y="170" width="120" height="60" as="geometry" />
        </mxCell>
        <mxCell id="JT1Ut7bAEaXKmV4Mu-lT-42" style="edgeStyle=orthogonalEdgeStyle;rounded=0;orthogonalLoop=1;jettySize=auto;html=1;exitX=1;exitY=0.5;exitDx=0;exitDy=0;" edge="1" parent="1" source="JT1Ut7bAEaXKmV4Mu-lT-3">
          <mxGeometry relative="1" as="geometry">
            <mxPoint x="1880" y="199.70588235294122" as="targetPoint" />
          </mxGeometry>
        </mxCell>
        <mxCell id="JT1Ut7bAEaXKmV4Mu-lT-3" value="" style="shape=sumEllipse;perimeter=ellipsePerimeter;whiteSpace=wrap;html=1;backgroundOutline=1;" vertex="1" parent="1">
          <mxGeometry x="1650" y="160" width="80" height="80" as="geometry" />
        </mxCell>
        <mxCell id="JT1Ut7bAEaXKmV4Mu-lT-4" value="+" style="text;html=1;align=center;verticalAlign=middle;resizable=0;points=[];autosize=1;strokeColor=none;fillColor=none;" vertex="1" parent="1">
          <mxGeometry x="1650" y="185" width="30" height="30" as="geometry" />
        </mxCell>
        <mxCell id="JT1Ut7bAEaXKmV4Mu-lT-7" value="-" style="text;html=1;align=center;verticalAlign=middle;resizable=0;points=[];autosize=1;strokeColor=none;fillColor=none;" vertex="1" parent="1">
          <mxGeometry x="1675" y="210" width="30" height="30" as="geometry" />
        </mxCell>
        <mxCell id="JT1Ut7bAEaXKmV4Mu-lT-10" value="" style="group" vertex="1" connectable="0" parent="1">
          <mxGeometry x="150" y="340" width="310" height="140" as="geometry" />
        </mxCell>
        <mxCell id="JT1Ut7bAEaXKmV4Mu-lT-8" value="" style="rounded=0;whiteSpace=wrap;html=1;dashed=1;" vertex="1" parent="JT1Ut7bAEaXKmV4Mu-lT-10">
          <mxGeometry width="310" height="140" as="geometry" />
        </mxCell>
        <mxCell id="JT1Ut7bAEaXKmV4Mu-lT-9" value="Accelerometer" style="text;html=1;align=center;verticalAlign=middle;resizable=0;points=[];autosize=1;strokeColor=none;fillColor=none;" vertex="1" parent="JT1Ut7bAEaXKmV4Mu-lT-10">
          <mxGeometry x="210" y="110" width="100" height="30" as="geometry" />
        </mxCell>
        <mxCell id="JT1Ut7bAEaXKmV4Mu-lT-11" value="&lt;div&gt;Acceration&lt;/div&gt;&lt;div&gt;\(d^2/dt^2\)&lt;/div&gt;" style="rounded=0;whiteSpace=wrap;html=1;" vertex="1" parent="JT1Ut7bAEaXKmV4Mu-lT-10">
          <mxGeometry x="20" y="40" width="120" height="60" as="geometry" />
        </mxCell>
        <mxCell id="JT1Ut7bAEaXKmV4Mu-lT-13" value="" style="verticalLabelPosition=bottom;shadow=0;dashed=0;align=center;html=1;verticalAlign=top;shape=mxgraph.electrical.abstract.summation_point;" vertex="1" parent="JT1Ut7bAEaXKmV4Mu-lT-10">
          <mxGeometry x="170" y="60" width="20" height="20" as="geometry" />
        </mxCell>
        <mxCell id="JT1Ut7bAEaXKmV4Mu-lT-15" style="edgeStyle=orthogonalEdgeStyle;rounded=0;orthogonalLoop=1;jettySize=auto;html=1;exitX=1;exitY=0.5;exitDx=0;exitDy=0;entryX=0;entryY=0.5;entryDx=0;entryDy=0;entryPerimeter=0;" edge="1" parent="JT1Ut7bAEaXKmV4Mu-lT-10" source="JT1Ut7bAEaXKmV4Mu-lT-11" target="JT1Ut7bAEaXKmV4Mu-lT-13">
          <mxGeometry relative="1" as="geometry" />
        </mxCell>
        <mxCell id="JT1Ut7bAEaXKmV4Mu-lT-14" style="edgeStyle=orthogonalEdgeStyle;rounded=0;orthogonalLoop=1;jettySize=auto;html=1;exitX=0.5;exitY=1;exitDx=0;exitDy=0;entryX=0;entryY=0.5;entryDx=0;entryDy=0;" edge="1" parent="1" source="JT1Ut7bAEaXKmV4Mu-lT-2" target="JT1Ut7bAEaXKmV4Mu-lT-11">
          <mxGeometry relative="1" as="geometry" />
        </mxCell>
        <mxCell id="JT1Ut7bAEaXKmV4Mu-lT-16" value="" style="endArrow=classic;html=1;rounded=0;entryX=0.5;entryY=1;entryDx=0;entryDy=0;entryPerimeter=0;exitX=0.5;exitY=0;exitDx=0;exitDy=0;" edge="1" parent="1" source="JT1Ut7bAEaXKmV4Mu-lT-17" target="JT1Ut7bAEaXKmV4Mu-lT-13">
          <mxGeometry width="50" height="50" relative="1" as="geometry">
            <mxPoint x="330" y="520" as="sourcePoint" />
            <mxPoint x="350" y="520" as="targetPoint" />
          </mxGeometry>
        </mxCell>
        <mxCell id="JT1Ut7bAEaXKmV4Mu-lT-17" value="&lt;div&gt;White Sensor&lt;/div&gt;&lt;div&gt;Noise&lt;/div&gt;" style="rounded=0;whiteSpace=wrap;html=1;" vertex="1" parent="1">
          <mxGeometry x="270" y="510" width="120" height="60" as="geometry" />
        </mxCell>
        <mxCell id="JT1Ut7bAEaXKmV4Mu-lT-26" style="edgeStyle=orthogonalEdgeStyle;rounded=0;orthogonalLoop=1;jettySize=auto;html=1;exitX=1;exitY=0.5;exitDx=0;exitDy=0;exitPerimeter=0;" edge="1" parent="1" source="JT1Ut7bAEaXKmV4Mu-lT-13" target="JT1Ut7bAEaXKmV4Mu-lT-23">
          <mxGeometry relative="1" as="geometry" />
        </mxCell>
        <mxCell id="JT1Ut7bAEaXKmV4Mu-lT-21" value="" style="rounded=0;whiteSpace=wrap;html=1;dashed=1;" vertex="1" parent="1">
          <mxGeometry x="510" y="340" width="670" height="140" as="geometry" />
        </mxCell>
        <mxCell id="JT1Ut7bAEaXKmV4Mu-lT-22" value="MANHATTAN-II FILTER" style="text;html=1;align=center;verticalAlign=middle;resizable=0;points=[];autosize=1;strokeColor=none;fillColor=none;" vertex="1" parent="1">
          <mxGeometry x="1030" y="450" width="150" height="30" as="geometry" />
        </mxCell>
        <mxCell id="JT1Ut7bAEaXKmV4Mu-lT-28" style="edgeStyle=orthogonalEdgeStyle;rounded=0;orthogonalLoop=1;jettySize=auto;html=1;exitX=1;exitY=0.5;exitDx=0;exitDy=0;entryX=0;entryY=0.5;entryDx=0;entryDy=0;" edge="1" parent="1" source="JT1Ut7bAEaXKmV4Mu-lT-23" target="JT1Ut7bAEaXKmV4Mu-lT-27">
          <mxGeometry relative="1" as="geometry" />
        </mxCell>
        <mxCell id="JT1Ut7bAEaXKmV4Mu-lT-23" value="GAIN" style="rounded=0;whiteSpace=wrap;html=1;" vertex="1" parent="1">
          <mxGeometry x="530" y="380" width="70" height="60" as="geometry" />
        </mxCell>
        <mxCell id="JT1Ut7bAEaXKmV4Mu-lT-31" style="edgeStyle=orthogonalEdgeStyle;rounded=0;orthogonalLoop=1;jettySize=auto;html=1;exitX=1;exitY=0.5;exitDx=0;exitDy=0;entryX=0;entryY=0.5;entryDx=0;entryDy=0;" edge="1" parent="1" source="JT1Ut7bAEaXKmV4Mu-lT-27" target="JT1Ut7bAEaXKmV4Mu-lT-30">
          <mxGeometry relative="1" as="geometry" />
        </mxCell>
        <mxCell id="JT1Ut7bAEaXKmV4Mu-lT-27" value="&lt;div&gt;Double Integral&lt;/div&gt;&lt;div&gt;\(F(s)/s^2\)&lt;/div&gt;" style="rounded=0;whiteSpace=wrap;html=1;" vertex="1" parent="1">
          <mxGeometry x="620" y="380" width="100" height="60" as="geometry" />
        </mxCell>
        <mxCell id="JT1Ut7bAEaXKmV4Mu-lT-34" style="edgeStyle=orthogonalEdgeStyle;rounded=0;orthogonalLoop=1;jettySize=auto;html=1;exitX=1;exitY=0.5;exitDx=0;exitDy=0;entryX=0;entryY=0.5;entryDx=0;entryDy=0;" edge="1" parent="1" source="JT1Ut7bAEaXKmV4Mu-lT-30" target="JT1Ut7bAEaXKmV4Mu-lT-33">
          <mxGeometry relative="1" as="geometry" />
        </mxCell>
        <mxCell id="JT1Ut7bAEaXKmV4Mu-lT-30" value="&lt;div&gt;High-pass filter&lt;/div&gt;&lt;div&gt;\(H(s) = \frac{s^2}{s^2+\sqrt{2}w_cs+w_c^2}\)&lt;/div&gt;" style="rounded=0;whiteSpace=wrap;html=1;" vertex="1" parent="1">
          <mxGeometry x="760" y="370" width="140" height="80" as="geometry" />
        </mxCell>
        <mxCell id="JT1Ut7bAEaXKmV4Mu-lT-39" style="edgeStyle=orthogonalEdgeStyle;rounded=0;orthogonalLoop=1;jettySize=auto;html=1;exitX=1;exitY=0.5;exitDx=0;exitDy=0;entryX=0;entryY=0.5;entryDx=0;entryDy=0;" edge="1" parent="1" source="JT1Ut7bAEaXKmV4Mu-lT-33" target="JT1Ut7bAEaXKmV4Mu-lT-38">
          <mxGeometry relative="1" as="geometry" />
        </mxCell>
        <mxCell id="JT1Ut7bAEaXKmV4Mu-lT-33" value="&lt;div&gt;MAH-2&lt;/div&gt;&lt;div&gt;Filter&lt;/div&gt;" style="rounded=0;whiteSpace=wrap;html=1;" vertex="1" parent="1">
          <mxGeometry x="940" y="370" width="140" height="80" as="geometry" />
        </mxCell>
        <mxCell id="JT1Ut7bAEaXKmV4Mu-lT-37" value="Delay Line" style="text;html=1;align=center;verticalAlign=middle;resizable=0;points=[];autosize=1;strokeColor=none;fillColor=none;" vertex="1" parent="1">
          <mxGeometry x="1420" y="450" width="80" height="30" as="geometry" />
        </mxCell>
        <mxCell id="JT1Ut7bAEaXKmV4Mu-lT-41" style="edgeStyle=orthogonalEdgeStyle;rounded=0;orthogonalLoop=1;jettySize=auto;html=1;exitX=1;exitY=0.5;exitDx=0;exitDy=0;" edge="1" parent="1" source="JT1Ut7bAEaXKmV4Mu-lT-38" target="JT1Ut7bAEaXKmV4Mu-lT-7">
          <mxGeometry relative="1" as="geometry" />
        </mxCell>
        <mxCell id="JT1Ut7bAEaXKmV4Mu-lT-38" value="&lt;div&gt;Delay Line&lt;/div&gt;&lt;div&gt;Transfer Function&lt;/div&gt;" style="rounded=0;whiteSpace=wrap;html=1;" vertex="1" parent="1">
          <mxGeometry x="1295" y="370" width="140" height="80" as="geometry" />
        </mxCell>
        <mxCell id="JT1Ut7bAEaXKmV4Mu-lT-43" value="&lt;div&gt;Residual&lt;/div&gt;&lt;div&gt;&lt;svg xmlns:xlink=&quot;http://www.w3.org/1999/xlink&quot; viewBox=&quot;0 -694 1210 899&quot; role=&quot;img&quot; height=&quot;2.034ex&quot; width=&quot;2.738ex&quot; xmlns=&quot;http://www.w3.org/2000/svg&quot; style=&quot;vertical-align: -0.464ex;&quot;&gt;&lt;defs&gt;&lt;path d=&quot;M409 688Q413 694 421 694H429H442Q448 688 448 686Q448 679 418 563Q411 535 404 504T392 458L388 442Q388 441 397 441T429 435T477 418Q521 397 550 357T579 260T548 151T471 65T374 11T279 -10H275L251 -105Q245 -128 238 -160Q230 -192 227 -198T215 -205H209Q189 -205 189 -198Q189 -193 211 -103L234 -11Q234 -10 226 -10Q221 -10 206 -8T161 6T107 36T62 89T43 171Q43 231 76 284T157 370T254 422T342 441Q347 441 348 445L378 567Q409 686 409 688ZM122 150Q122 116 134 91T167 53T203 35T237 27H244L337 404Q333 404 326 403T297 395T255 379T211 350T170 304Q152 276 137 237Q122 191 122 150ZM500 282Q500 320 484 347T444 385T405 400T381 404H378L332 217L284 29Q284 27 285 27Q293 27 317 33T357 47Q400 66 431 100T475 170T494 234T500 282Z&quot; id=&quot;MJX-2-TEX-I-1D719&quot;&gt;&lt;/path&gt;&lt;path d=&quot;M287 628Q287 635 230 637Q206 637 199 638T192 648Q192 649 194 659Q200 679 203 681T397 683Q587 682 600 680Q664 669 707 631T751 530Q751 453 685 389Q616 321 507 303Q500 302 402 301H307L277 182Q247 66 247 59Q247 55 248 54T255 50T272 48T305 46H336Q342 37 342 35Q342 19 335 5Q330 0 319 0Q316 0 282 1T182 2Q120 2 87 2T51 1Q33 1 33 11Q33 13 36 25Q40 41 44 43T67 46Q94 46 127 49Q141 52 146 61Q149 65 218 339T287 628ZM645 554Q645 567 643 575T634 597T609 619T560 635Q553 636 480 637Q463 637 445 637T416 636T404 636Q391 635 386 627Q384 621 367 550T332 412T314 344Q314 342 395 342H407H430Q542 342 590 392Q617 419 631 471T645 554Z&quot; id=&quot;MJX-2-TEX-I-1D443&quot;&gt;&lt;/path&gt;&lt;/defs&gt;&lt;g transform=&quot;scale(1,-1)&quot; stroke-width=&quot;0&quot; fill=&quot;currentColor&quot; stroke=&quot;currentColor&quot;&gt;&lt;g data-mml-node=&quot;math&quot;&gt;&lt;g data-mml-node=&quot;msub&quot;&gt;&lt;g data-mml-node=&quot;mi&quot;&gt;&lt;use xlink:href=&quot;#MJX-2-TEX-I-1D719&quot; data-c=&quot;1D719&quot;&gt;&lt;/use&gt;&lt;/g&gt;&lt;g transform=&quot;translate(629,-150) scale(0.707)&quot; data-mml-node=&quot;mi&quot;&gt;&lt;use xlink:href=&quot;#MJX-2-TEX-I-1D443&quot; data-c=&quot;1D443&quot;&gt;&lt;/use&gt;&lt;/g&gt;&lt;/g&gt;&lt;/g&gt;&lt;/g&gt;&lt;/svg&gt;&lt;/div&gt;" style="rounded=0;whiteSpace=wrap;html=1;" vertex="1" parent="1">
          <mxGeometry x="1880" y="170" width="120" height="60" as="geometry" />
        </mxCell>
      </root>
    </mxGraphModel>
  </diagram>
</mxfile>
